<svg viewBox="0 0 24 24" xmlns="http://www.w3.org/2000/svg" xml:space="preserve" fill-rule="evenodd">
  <path d="M6.569.008c-.94 0-1.714.774-1.714 1.714V5.15h14.281V1.722c0-.94-.774-1.714-1.714-1.714H6.569ZM1.714 6.292C.774 6.292 0 7.066 0 8.006v9.711c0 .939.774 1.713 1.714 1.713h1.999v-4.284a2.864 2.864 0 0 1 2.856-2.856h10.853a2.865 2.865 0 0 1 2.857 2.856v4.284h1.999c.94 0 1.714-.774 1.714-1.713V8.006c0-.94-.774-1.714-1.714-1.714H1.714ZM18.85 9.148h1.714c.314 0 .571.258.571.571a.574.574 0 0 1-.571.572H18.85a.574.574 0 0 1-.571-.572c0-.313.258-.571.571-.571ZM6.569 13.432c-.94 0-1.714.774-1.714 1.714v7.14c0 .94.774 1.714 1.714 1.714h10.853c.94 0 1.714-.774 1.714-1.714v-7.14c0-.94-.774-1.714-1.714-1.714H6.569Zm1.714 3.142h7.426c.313 0 .571.258.571.571a.574.574 0 0 1-.571.572H8.283a.574.574 0 0 1-.571-.572c0-.313.257-.571.571-.571Zm0 3.142h7.426c.313 0 .571.258.571.571a.574.574 0 0 1-.571.571H8.283a.573.573 0 0 1-.571-.571c0-.313.257-.571.571-.571Z" fill="#fff" fill-rule="nonzero" />
</svg>