<svg viewBox="0 0 150 44" xmlns="http://www.w3.org/2000/svg">
  <path d="M125.603 8.092c5.136-8.712 15.409-8.712 20.545-4.356 5.136 4.356 5.136 13.068 0 21.78-3.596 6.534-12.84 13.068-20.545 17.424-7.704-4.356-16.949-10.89-20.544-17.424-5.136-8.712-5.136-17.424 0-21.78 5.136-4.356 15.408-4.356 20.544 4.356Z" fill="#dc0000" />
  <path d="M125.603 8.092c5.136-8.712 15.409-8.712 20.545-4.356 5.136 4.356 5.136 13.068 0 21.78-3.596 6.534-12.84 13.068-20.545 17.424-7.704-4.356-16.949-10.89-20.544-17.424-5.136-8.712-5.136-17.424 0-21.78 5.136-4.356 15.408-4.356 20.544 4.356Zm-1.066.629C119.863.793 110.533.716 105.86 4.68c-4.766 4.042-4.5 12.124.265 20.207a.258.258 0 0 1 .018.032c3.412 6.199 12.075 12.356 19.461 16.596 7.385-4.24 16.048-10.397 19.459-16.596l.018-.032c4.766-8.083 5.032-16.165.266-20.207C140.674.716 131.343.793 126.67 8.721a1.24 1.24 0 0 1-2.133 0Z" />
  <circle cx="70.735" cy="22.006" r="21.119" fill="#f4c51c" />
  <path d="M70.735.887c11.656 0 21.119 9.463 21.119 21.119s-9.463 21.119-21.119 21.119-21.119-9.463-21.119-21.119S59.079.887 70.735.887Zm0 1.134c-11.03 0-19.985 8.955-19.985 19.985s8.955 19.985 19.985 19.985S90.72 33.036 90.72 22.006 81.765 2.021 70.735 2.021Z" />
  <path fill="#0c46f3" d="M0 2.875h38.263v38.263H0z" />
  <path d="M38.263 2.875v38.263H0V2.875h38.263Zm-.902.902H.903v36.458h36.458V3.777Z" />
</svg>